HIERARCHY
ROOT Hips
{
	OFFSET 0.000000 0.000000 0.000000
	CHANNELS 6 Xposition Yposition Zposition Zrotation Yrotation Xrotation 
	JOINT LHipJoint
	{
		OFFSET 0.000000 0.000000 0.000000
		CHANNELS 3 Zrotation Yrotation Xrotation
		JOINT LeftUpLeg
		{
			OFFSET 1.363060 -1.794630 0.839290
			CHANNELS 3 Zrotation Yrotation Xrotation
			JOINT LeftLeg
			{
				OFFSET 2.448110 -6.726130 0.000000
				CHANNELS 3 Zrotation Yrotation Xrotation
				JOINT LeftFoot
				{
					OFFSET 2.562200 -7.039590 0.000000
					CHANNELS 3 Zrotation Yrotation Xrotation
					JOINT LeftToeBase
					{
						OFFSET 0.157640 -0.433110 2.322550
						CHANNELS 3 Zrotation Yrotation Xrotation
						End Site
						{
							OFFSET 0.000000 0.000000 0.000000
						}
					}
				}
			}
		}
	}
	JOINT RHipJoint
	{
		OFFSET 0.000000 0.000000 0.000000
		CHANNELS 3 Zrotation Yrotation Xrotation
		JOINT RightUpLeg
		{
			OFFSET -1.305520 -1.794630 0.839290
			CHANNELS 3 Zrotation Yrotation Xrotation
			JOINT RightLeg
			{
				OFFSET -2.542530 -6.985550 0.000000
				CHANNELS 3 Zrotation Yrotation Xrotation
				JOINT RightFoot
				{
					OFFSET -2.568260 -7.056230 0.000000
					CHANNELS 3 Zrotation Yrotation Xrotation
					JOINT RightToeBase
					{
						OFFSET -0.164730 -0.452590 2.363150
						CHANNELS 3 Zrotation Yrotation Xrotation
						End Site
						{
							OFFSET 0.000000 0.000000 0.000000
						}
					}
				}
			}
		}
	}
	JOINT LowerBack
	{
		OFFSET 0.000000 0.000000 0.000000
		CHANNELS 3 Zrotation Yrotation Xrotation
		JOINT Spine
		{
			OFFSET 0.028270 2.035590 -0.193380
			CHANNELS 3 Zrotation Yrotation Xrotation
			JOINT Spine1
			{
				OFFSET 0.056720 2.048850 -0.042750
				CHANNELS 3 Zrotation Yrotation Xrotation
				JOINT Neck
				{
					OFFSET 0.000000 0.000000 0.000000
					CHANNELS 3 Zrotation Yrotation Xrotation
					JOINT Neck1
					{
						OFFSET -0.054170 1.746240 0.172020
						CHANNELS 3 Zrotation Yrotation Xrotation
						JOINT Head
						{
							OFFSET 0.104070 1.761360 -0.123970
							CHANNELS 3 Zrotation Yrotation Xrotation
							End Site
							{
								OFFSET 0.000000 0.000000 0.000000
							}
						}
					}
				}
				JOINT LeftShoulder
				{
					OFFSET 0.000000 0.000000 0.000000
					CHANNELS 3 Zrotation Yrotation Xrotation
					JOINT LeftArm
					{
						OFFSET 3.362410 1.200890 -0.311210
						CHANNELS 3 Zrotation Yrotation Xrotation
						JOINT LeftForeArm
						{
							OFFSET 4.983000 -0.000000 -0.000000
							CHANNELS 3 Zrotation Yrotation Xrotation
							JOINT LeftHand
							{
								OFFSET 3.483560 -0.000000 -0.000000
								CHANNELS 3 Zrotation Yrotation Xrotation
								JOINT LeftFingerBase
								{
									OFFSET 0.000000 0.000000 0.000000
									CHANNELS 3 Zrotation Yrotation Xrotation
									JOINT LeftHandIndex1
									{
										OFFSET 0.715260 -0.000000 -0.000000
										CHANNELS 3 Zrotation Yrotation Xrotation
										End Site
										{
											OFFSET 0.000000 0.000000 0.000000
										}
									}
								}
								JOINT LThumb
								{
									OFFSET 0.000000 0.000000 0.000000
									CHANNELS 3 Zrotation Yrotation Xrotation
									End Site
									{
										OFFSET 0.000000 0.000000 0.000000
									}
								}
							}
						}
					}
				}
				JOINT RightShoulder
				{
					OFFSET 0.000000 0.000000 0.000000
					CHANNELS 3 Zrotation Yrotation Xrotation
					JOINT RightArm
					{
						OFFSET -3.136600 1.374050 -0.404650
						CHANNELS 3 Zrotation Yrotation Xrotation
						JOINT RightForeArm
						{
							OFFSET -5.241900 -0.000000 -0.000000
							CHANNELS 3 Zrotation Yrotation Xrotation
							JOINT RightHand
							{
								OFFSET -3.444170 -0.000000 -0.000000
								CHANNELS 3 Zrotation Yrotation Xrotation
								JOINT RightFingerBase
								{
									OFFSET 0.000000 0.000000 0.000000
									CHANNELS 3 Zrotation Yrotation Xrotation
									JOINT RightHandIndex1
									{
										OFFSET -0.622530 -0.000000 -0.000000
										CHANNELS 3 Zrotation Yrotation Xrotation
										End Site
										{
											OFFSET 0.000000 0.000000 0.000000
										}
									}
								}
								JOINT RThumb
								{
									OFFSET 0.000000 0.000000 0.000000
									CHANNELS 3 Zrotation Yrotation Xrotation
									End Site
									{
										OFFSET 0.000000 0.000000 0.000000
									}
								}
							}
						}
					}
				}
			}
		}
	}
}
MOTION
Frames: 9
Frame Time: 0.008333
6.830186 16.322916 1.139330 48.099590 82.058742 64.096561 -11.244681 2.290653 0.581158 1.030003 1.219209 -28.465605 2.555488 3.592271 82.387924 3.031922 17.190890 15.410258 5.674500 -0.000001 -43.126000 9.201076 -2.151004 0.646618 21.956928 -3.751372 -26.432493 3.144409 -1.230455 33.236364 -3.840908 -6.560419 -34.205256 -175.796500 0.000000 -17.351900 -0.516532 -2.246543 -2.242424 0.230433 -2.153742 -5.037935 -1.683915 -2.206829 -8.040400 1.657976 1.374740 -3.223607 -0.772242 -0.133331 1.279105 0.000000 0.000000 0.000000 11.637993 -0.570918 -3.432948 -50.995547 -83.988656 -11.945992 3.185285 -58.022533 -0.082247 3.336169 -5.222119 -0.165159 0.287398 0.979751 -0.000000 0.000000 0.000000 0.000000 0.000000 0.000000 0.000000 -5.838843 6.228107 -0.787771 23.971142 47.388879 -53.577281 -1.847245 62.217868 -0.073356 -5.214911 3.195462 -0.174155 -0.134681 -0.724532 -0.000000 0.000000 0.000000 0.000000 0.000000 0.000000 0.000000 
7.016349 16.395125 1.249606 50.295892 81.839305 66.744633 -10.968730 2.106763 0.789935 0.161532 -0.263977 -30.098354 2.520288 3.488046 81.812828 2.910156 16.351844 14.563090 5.183200 0.000000 -43.491300 9.448464 -2.007590 0.728390 21.326829 -3.231745 -25.007668 3.049362 -0.966828 31.075929 -3.847833 -7.081193 -33.210023 -175.798800 0.000000 -16.673500 -1.116662 -2.178362 -2.414737 0.102093 -2.044673 -5.007523 -1.727575 -2.108949 -7.859457 1.783915 1.882223 -3.610856 -0.695912 -0.120849 1.161678 0.000000 0.000000 0.000000 11.331033 0.046898 -2.360859 -63.420173 -86.610913 -2.872227 3.256098 -57.733048 -0.085865 3.802834 -4.516081 -0.169587 0.271970 0.984414 -0.000000 0.000000 0.000000 0.000000 0.000000 0.000000 0.000000 -6.013346 6.216000 -1.199907 25.007030 46.472253 -55.357069 -1.943148 62.552909 -0.111126 -8.018291 4.143279 -0.339853 -0.088230 -0.751011 -0.000000 0.000000 0.000000 0.000000 0.000000 0.000000 0.000000 
7.203974 16.475739 1.360799 51.829359 81.488205 68.700534 -10.713605 1.949707 1.044930 -0.727319 -1.729042 -31.643751 2.459108 3.380214 80.934747 2.772449 15.441183 13.617035 4.671900 -0.000000 -43.731700 9.680282 -1.886327 0.856342 20.637455 -2.688712 -23.619331 2.920919 -0.719442 28.970582 -3.810347 -7.549449 -31.867189 -175.905700 0.000000 -15.367300 -1.672565 -2.140005 -2.712905 -0.033499 -1.971231 -4.944525 -1.823886 -2.041788 -7.458734 1.806937 2.355101 -3.986313 -0.630290 -0.109036 1.044634 0.000000 0.000000 0.000000 10.960859 0.467996 -1.116529 -75.627603 -88.938267 7.199169 3.113176 -57.809906 -0.091048 4.455582 -3.829060 -0.176868 0.239561 0.974402 -0.000000 0.000000 0.000000 0.000000 0.000000 0.000000 0.000000 -6.273287 6.392710 -1.569396 25.893428 45.591267 -56.795693 -2.045610 62.811133 -0.151410 -11.007603 5.129572 -0.568204 -0.038276 -0.776488 0.000000 0.000000 0.000000 0.000000 0.000000 0.000000 0.000000 
7.393004 16.564494 1.471738 52.663398 81.036930 69.934464 -10.483079 1.807011 1.321097 -1.601686 -3.151279 -33.083308 2.371663 3.272379 79.749302 2.623951 14.492217 12.623307 4.169400 0.000000 -43.820100 9.891008 -1.797932 0.993699 19.918833 -2.190466 -22.272021 2.773711 -0.500153 26.940645 -3.713946 -7.903563 -30.143719 -176.146200 0.000000 -13.350500 -2.185430 -2.142974 -3.062494 -0.154317 -1.941476 -4.909448 -1.889067 -2.016459 -7.100021 1.709932 2.781185 -4.224188 -0.584505 -0.101008 0.967301 0.000000 0.000000 0.000000 10.625784 0.637044 -0.226833 93.282343 -89.561933 -162.911746 2.885427 -58.167553 -0.100362 5.378315 -3.247649 -0.190259 0.198505 0.955495 -0.000000 0.000000 0.000000 0.000000 0.000000 0.000000 0.000000 -6.588770 6.795409 -1.775066 26.638605 44.758171 -57.825392 -2.130507 62.933800 -0.192936 -14.148786 6.100203 -0.859426 0.017869 -0.800455 -0.000000 0.000000 0.000000 0.000000 0.000000 0.000000 0.000000 
7.583376 16.660961 1.581807 52.827163 80.523986 70.482086 -10.268492 1.669359 1.590903 -2.435029 -4.504978 -34.394981 2.258227 3.162808 78.243704 2.472591 13.550085 11.671681 3.710500 -0.000000 -44.093600 10.087173 -1.746451 1.105063 19.197270 -1.798257 -20.959758 2.622784 -0.317044 24.985624 -3.546742 -8.088670 -28.015482 -176.535700 0.000000 -10.566599 -2.677070 -2.153636 -3.385051 -0.257281 -1.918434 -4.916992 -1.886022 -1.998573 -6.901863 1.532610 3.149543 -4.331744 -0.554157 -0.096480 0.928863 0.000000 0.000000 0.000000 10.329531 0.686430 0.180594 83.920447 -88.839700 -154.255894 2.693077 -58.599990 -0.115422 6.618987 -2.836469 -0.213360 0.153835 0.937364 -0.000000 0.000000 0.000000 0.000000 0.000000 0.000000 0.000000 -6.908478 7.299594 -1.812292 27.229882 43.950866 -58.434262 -2.192262 62.900280 -0.233878 -17.383322 6.998685 -1.203838 0.079426 -0.820764 -0.000000 0.000000 0.000000 0.000000 0.000000 0.000000 0.000000 
7.774955 16.764343 1.690707 52.389778 79.971255 70.395605 -10.064900 1.537183 1.837934 -3.218858 -5.750722 -35.552547 2.120361 3.050658 76.417068 2.322025 12.639218 10.783225 3.303900 0.000000 -44.205300 10.274044 -1.735112 1.172897 18.487062 -1.561445 -19.662479 2.479004 -0.174468 23.095337 -3.302560 -8.065231 -25.470968 -177.069301 0.000000 -6.988400 -3.158156 -2.138357 -3.643547 -0.349736 -1.867781 -4.946871 -1.830290 -1.954149 -6.826815 1.322191 3.452748 -4.376546 -0.534647 -0.093927 0.909557 0.000000 0.000000 0.000000 10.033335 0.737683 0.268110 76.652628 -88.567005 -147.378377 2.568544 -58.969049 -0.136548 8.166276 -2.663292 -0.253279 0.105935 0.926749 -0.000000 0.000000 0.000000 0.000000 0.000000 0.000000 0.000000 -7.187170 7.784397 -1.738843 27.642659 43.162993 -58.656028 -2.240363 62.700329 -0.272150 -20.620830 7.764287 -1.579445 0.142763 -0.835163 -0.000000 0.000000 0.000000 0.000000 0.000000 0.000000 0.000000 
7.967587 16.873477 1.798632 51.444962 79.382668 69.744186 -9.870663 1.415136 2.056016 -3.962430 -6.853297 -36.525926 1.959468 2.933758 74.260546 2.177884 11.791859 10.020868 2.964700 0.000000 -44.301000 10.455330 -1.764996 1.191674 17.787705 -1.513334 -18.359349 2.348607 -0.074387 21.260353 -2.982413 -7.810038 -22.516669 -177.718600 -0.000000 -2.639600 -3.632361 -2.081479 -3.829735 -0.440104 -1.774356 -4.977311 -1.752761 -1.867456 -6.802993 1.112089 3.687159 -4.411591 -0.525145 -0.092306 0.893618 0.000000 0.000000 0.000000 9.711807 0.838873 0.220349 71.666241 -88.460038 -142.451207 2.498148 -59.233269 -0.163022 9.964952 -2.755946 -0.319722 0.054511 0.925764 -0.000000 0.000000 0.000000 0.000000 0.000000 0.000000 0.000000 -7.391318 8.190754 -1.607332 27.859592 42.411659 -58.534247 -2.286573 62.317198 -0.305810 -23.742193 8.338582 -1.951752 0.203721 -0.842342 0.000000 0.000000 0.000000 0.000000 0.000000 0.000000 0.000000 
8.161197 16.986724 1.905954 50.088634 78.752838 68.604116 -9.685103 1.309579 2.240504 -4.686350 -7.777893 -37.292286 1.777515 2.811397 71.773846 2.042846 11.024813 9.414301 2.694800 -0.000000 -44.302800 10.634764 -1.834118 1.162787 17.090469 -1.664076 -17.038447 2.233778 -0.017493 19.479685 -2.596176 -7.318937 -19.181513 1.566600 0.000000 -2.394300 -4.102852 -1.979766 -3.944628 -0.534617 -1.635489 -4.995278 -1.678637 -1.735332 -6.779810 0.923755 3.852362 -4.464259 -0.526174 -0.091146 0.872912 0.000000 0.000000 0.000000 9.363849 0.995968 0.154655 69.075031 -88.348764 -139.541078 2.461965 -59.396288 -0.193253 11.914220 -3.110377 -0.422777 0.001026 0.934041 -0.000000 0.000000 0.000000 0.000000 0.000000 0.000000 0.000000 -7.499360 8.499491 -1.449922 27.874292 41.724982 -58.107807 -2.339432 61.728328 -0.333360 -26.607269 8.673413 -2.277860 0.258819 -0.842033 -0.000000 0.000000 0.000000 0.000000 0.000000 0.000000 0.000000 
8.355650 17.102131 2.013162 48.414401 78.074731 67.059445 -9.506557 1.226058 2.387778 -5.413667 -8.497168 -37.838572 1.576878 2.682944 68.959121 1.918732 10.348783 8.999335 2.494600 -0.000000 -44.377200 10.816577 -1.936971 1.091375 16.383270 -2.001813 -15.702841 2.134117 -0.003575 17.770349 -2.162477 -6.600571 -15.529991 0.854800 -0.000000 -7.879000 -4.575016 -1.835219 -3.992092 -0.636920 -1.453484 -4.994888 -1.622430 -1.559893 -6.731356 0.772039 3.950056 -4.549003 -0.537524 -0.090176 0.843295 0.000000 0.000000 0.000000 9.004945 1.209722 0.130912 69.068665 -88.150262 -138.838318 2.448406 -59.466020 -0.225175 13.889153 -3.687531 -0.568144 -0.051750 0.950128 -0.000000 0.000000 0.000000 0.000000 0.000000 0.000000 0.000000 -7.501401 8.703193 -1.285668 27.690068 41.134272 -57.405969 -2.403220 60.911267 -0.353870 -29.071433 8.739297 -2.514471 0.305677 -0.834809 -0.000000 0.000000 0.000000 0.000000 0.000000 0.000000 0.000000 
